# xmcd
#
# Track frame offsets:
#	150
#	26823
#	49230
#	68440
#	97361
#	114516
#	131472
#	151986
#	177600
#	200925
#	220990
#
# Disc length: 3172 seconds
#
# Revision: 4
# Processed by: cddbd v1.5.1PL0 Copyright (c) Steve Scherf et al.
# Submitted via: audiograbber 1.83.01
#
DISCID=a90c620b
DTITLE=Count Basic - Moving In The Right Direction
DYEAR=1996
DGENRE=Jazz
TTITLE0=Moving In The Right Direction
TTITLE1=Got To Do
TTITLE2=So Far Away
TTITLE3=Joy And Pain
TTITLE4=This Is Your Life
TTITLE5=Mole Moves House
TTITLE6=Where Did Our Love Go
TTITLE7=Love Your Life
TTITLE8=Sweet Luis
TTITLE9=Speechless
TTITLE10=What's Up?
EXTD=
EXTT0=
EXTT1=
EXTT2=
EXTT3=
EXTT4=
EXTT5=
EXTT6=
EXTT7=
EXTT8=
EXTT9=
EXTT10=
PLAYORDER=
